<?xml version="1.0" encoding="UTF-8"?>
<!DOCTYPE svg PUBLIC "-//W3C//DTD SVG 1.1//EN" "http://www.w3.org/Graphics/SVG/1.1/DTD/svg11.dtd">
<svg xmlns="http://www.w3.org/2000/svg" version="1.1" width="3534" height="1268" viewBox="147 444 3534 1268" style="shape-rendering:geometricPrecision; text-rendering:geometricPrecision; image-rendering:optimizeQuality; fill-rule:evenodd; clip-rule:evenodd" xmlns:xlink="http://www.w3.org/1999/xlink">
<g><path style="opacity:0.99" fill="#cc0e2b" d="M 295.5,454.5 C 360.167,454.5 424.833,454.5 489.5,454.5C 459.538,794.497 429.871,1134.5 400.5,1474.5C 513.502,1474.17 626.502,1474.5 739.5,1475.5C 735.195,1539.1 729.695,1602.77 723,1666.5C 717.94,1683.56 707.107,1695.06 690.5,1701C 538.209,1702.66 385.876,1702.99 233.5,1702C 199.653,1695.34 177.319,1676.01 166.5,1644C 159.064,1623.36 157.564,1602.53 162,1581.5C 165.813,1530.3 170.313,1478.47 175.5,1426C 174.72,1424.93 174.887,1423.76 176,1422.5C 182.609,1341.48 189.609,1261.15 197,1181.5C 209.368,1035 222.201,888.003 235.5,740.5C 234.54,739.188 234.706,737.854 236,736.5C 240.834,676.386 246,616.886 251.5,558C 251.167,557.667 250.833,557.333 250.5,557C 251.191,555.933 251.691,554.766 252,553.5C 252.193,548.25 252.693,543.083 253.5,538C 253.167,537.667 252.833,537.333 252.5,537C 254.098,526.372 255.431,515.706 256.5,505C 256.915,478.422 269.915,461.588 295.5,454.5 Z"/></g>
<g><path style="opacity:0.99" fill="#cc0e2b" d="M 763.5,454.5 C 989.834,454.333 1216.17,454.5 1442.5,455C 1494.46,462.966 1526.63,492.466 1539,543.5C 1542.29,561.992 1543.29,580.658 1542,599.5C 1523.54,812.504 1504.87,1025.5 1486,1238.5C 1473.6,1302.56 1435.93,1341.89 1373,1356.5C 1370.2,1357.13 1367.53,1358.13 1365,1359.5C 1364,1359.17 1363,1358.83 1362,1358.5C 1355,1359.83 1348,1361.17 1341,1362.5C 1126.37,1361.23 911.699,1361.23 697,1362.5C 695,1361.83 693,1361.17 691,1360.5C 637.957,1358.28 602.624,1331.95 585,1281.5C 583.283,1272.81 581.117,1264.64 578.5,1257C 579.006,1254.96 579.339,1252.96 579.5,1251C 578.259,1245.07 577.592,1239.07 577.5,1233C 584.017,1156.17 590.684,1080 597.5,1004.5C 596.54,1003.19 596.706,1001.85 598,1000.5C 607.444,887.94 617.277,775.44 627.5,663C 627.167,662.667 626.833,662.333 626.5,662C 627.227,660.601 627.727,659.101 628,657.5C 630.163,628.845 632.83,600.178 636,571.5C 648.173,515.325 681.673,478.492 736.5,461C 745.665,458.685 754.665,456.519 763.5,454.5 Z M 890.5,682.5 C 1028.39,682.184 1166.56,682.518 1305,683.5C 1302.98,715.731 1300.15,748.398 1296.5,781.5C 1296.71,782.086 1297.04,782.586 1297.5,783C 1295.93,786.473 1295.6,789.639 1296.5,792.5C 1293.64,816.379 1291.48,840.045 1290,863.5C 1289.5,864 1289,864.5 1288.5,865C 1288.24,867.942 1288.57,870.608 1289.5,873C 1286.77,896.029 1284.6,918.862 1283,941.5C 1282.69,942.766 1282.19,943.933 1281.5,945C 1281.65,946.974 1281.98,948.974 1282.5,951C 1281.56,958.34 1280.56,965.674 1279.5,973C 1280.08,973.893 1280.41,974.893 1280.5,976C 1278.03,999.708 1275.36,1023.37 1272.5,1047C 1272.91,1051 1273.25,1054.66 1273.5,1058C 1271.93,1065.7 1271.09,1073.53 1271,1081.5C 1270.59,1111.21 1255.75,1128.05 1226.5,1132C 1089.79,1132.17 953.127,1132.67 816.5,1133.5C 816.167,1132 815.833,1130.5 815.5,1129C 827.697,993.863 839.53,858.696 851,723.5C 855.254,701.082 868.42,687.415 890.5,682.5 Z"/></g>
<g><path style="opacity:0.99" fill="#cc0e2b" d="M 1828.5,454.5 C 2055.17,454.333 2281.83,454.5 2508.5,455C 2559.46,463.296 2591.3,492.463 2604,542.5C 2606.73,555.517 2608.23,568.683 2608.5,582C 2589.6,801.554 2570.43,1021.05 2551,1240.5C 2540.24,1296.87 2508.24,1333.87 2455,1351.5C 2446.72,1354.65 2438.22,1357.31 2429.5,1359.5C 2428.91,1359.29 2428.41,1358.96 2428,1358.5C 2421.44,1432.18 2414.78,1505.84 2408,1579.5C 2394.25,1645.75 2354.42,1685.08 2288.5,1697.5C 2283.53,1698.85 2278.53,1700.01 2273.5,1701C 2137.5,1701.67 2001.5,1701.67 1865.5,1701C 1847.67,1697.17 1836.83,1686.33 1833,1668.5C 1832.57,1660.13 1832.4,1651.96 1832.5,1644C 1833.23,1642.6 1833.73,1641.1 1834,1639.5C 1837.79,1589.6 1842.29,1539.44 1847.5,1489C 1846.72,1486.48 1846.39,1483.81 1846.5,1481C 1847.87,1478.47 1848.87,1475.8 1849.5,1473C 1950.17,1472.67 2050.83,1472.33 2151.5,1472C 2178.36,1466.36 2192.36,1449.69 2193.5,1422C 2193.17,1420.33 2192.83,1418.67 2192.5,1417C 2193.81,1409.03 2194.81,1401.03 2195.5,1393C 2195.17,1392.67 2194.83,1392.33 2194.5,1392C 2195.23,1390.6 2195.73,1389.1 2196,1387.5C 2196.19,1381.58 2196.69,1375.75 2197.5,1370C 2197.17,1369.67 2196.83,1369.33 2196.5,1369C 2197.87,1366.7 2198.53,1364.2 2198.5,1361.5C 2052.88,1362.41 1907.38,1362.74 1762,1362.5C 1694.2,1357.69 1654.7,1321.86 1643.5,1255C 1643.5,1240.33 1643.5,1225.67 1643.5,1211C 1644,1210.5 1644.5,1210 1645,1209.5C 1662.12,1009 1679.62,808.838 1697.5,609C 1699.8,522.527 1743.47,471.027 1828.5,454.5 Z M 1955.5,682.5 C 2093.95,682.168 2232.62,682.502 2371.5,683.5C 2370.96,684.748 2370.29,685.915 2369.5,687C 2369.83,687.333 2370.17,687.667 2370.5,688C 2366.65,727.73 2363.15,767.564 2360,807.5C 2359.69,808.766 2359.19,809.933 2358.5,811C 2358.59,813.893 2358.92,816.727 2359.5,819.5C 2356.85,842.352 2354.52,865.185 2352.5,888C 2352.83,888.333 2353.17,888.667 2353.5,889C 2352.83,890.667 2352.17,892.333 2351.5,894C 2351.88,899.123 2351.88,904.79 2351.5,911C 2347.9,942.097 2345.07,973.263 2343,1004.5C 2341.9,1012.12 2341.24,1019.79 2341,1027.5C 2339.89,1028.76 2339.72,1029.93 2340.5,1031C 2338.41,1053.15 2336.24,1075.65 2334,1098.5C 2327.14,1118.85 2312.98,1130.02 2291.5,1132C 2154.47,1132.17 2017.47,1132.67 1880.5,1133.5C 1892.27,998.143 1904.11,862.81 1916,727.5C 1918.48,702.871 1931.64,687.871 1955.5,682.5 Z"/></g>
<g><path style="opacity:0.99" fill="#cc0e2b" d="M 2894.5,454.5 C 3120.83,454.333 3347.17,454.5 3573.5,455C 3626.03,463.862 3658.2,494.362 3670,546.5C 3673.25,563.006 3674.25,579.673 3673,596.5C 3654.47,803.119 3636.47,1009.79 3619,1216.5C 3612.61,1295.67 3571.11,1343 3494.5,1358.5C 3490.32,1359.56 3486.15,1360.56 3482,1361.5C 3480.76,1361.54 3479.42,1361.21 3478,1360.5C 3474.28,1361.1 3470.62,1361.76 3467,1362.5C 3253.92,1361.99 3040.59,1361.99 2827,1362.5C 2756.45,1356.94 2717.12,1319.28 2709,1249.5C 2708.55,1238.13 2708.38,1226.96 2708.5,1216C 2709.13,1215.25 2709.63,1214.42 2710,1213.5C 2711.27,1197.27 2712.77,1181.1 2714.5,1165C 2713.72,1162.48 2713.39,1159.81 2713.5,1157C 2715.06,1150.29 2716.06,1143.46 2716.5,1136.5C 2730.95,969.354 2745.62,802.188 2760.5,635C 2760.17,634.667 2759.83,634.333 2759.5,634C 2760.19,632.933 2760.69,631.766 2761,630.5C 2762.33,610.426 2764.33,590.092 2767,569.5C 2779.94,514.247 2813.11,478.081 2866.5,461C 2875.95,458.712 2885.29,456.545 2894.5,454.5 Z M 3020.5,682.5 C 3158.88,682.52 3297.55,682.52 3436.5,682.5C 3432.26,725.64 3428.43,769.307 3425,813.5C 3424.5,814 3424,814.5 3423.5,815C 3423.8,821.54 3423.8,828.207 3423.5,835C 3422.83,835.667 3422.17,836.333 3421.5,837C 3422.13,838.738 3422.46,840.571 3422.5,842.5C 3415.19,919.276 3408.35,996.61 3402,1074.5C 3400.79,1076.44 3400.63,1078.27 3401.5,1080C 3401.43,1109.71 3386.93,1127.21 3358,1132.5C 3357.67,1132.17 3357.33,1131.83 3357,1131.5C 3220.53,1132.17 3084.03,1132.83 2947.5,1133.5C 2946.34,1128.53 2946.17,1123.53 2947,1118.5C 2958.86,986.506 2970.53,854.506 2982,722.5C 2986.23,700.769 2999.07,687.435 3020.5,682.5 Z"/></g>
</svg>
